<svg>
<path xmlns="http://www.w3.org/2000/svg" d="m 128.00009,102.63061 c -5.5,-16 -25,-13 -11,24.5 -43.5,-40.5 -32.5,-95.4 -0.5,-122.000003 -6.5,19.000003 1,31.500003 25,35.000003 1,-4.65 1.5,-9.35 2.5,-14 0.5,0.65 1,1.35 1.5,2 0,0 3,-0.5 4.5,-0.5 1.5,0 4.5,0.5 4.5,0.5 0.5,-0.65 1,-1.35 1.5,-2 1,4.65 1.5,9.35 2.5,14 24,-3 31.5,-16 25,-35.000003 32,26.500003 43,81.500003 -0.5,122.000003 14,-37.5 -5,-40.5 -11,-24.5 -8,-14 -17.5,-14.5 -22,35.5 C 145.50009,88.13061 136.00009,88.63061 128.00009,102.63061 Z"/>
</svg>
